<svg xmlns="http://www.w3.org/2000/svg" xml:space="preserve" width="1000px" height="359.965px" x="0px" y="0px" viewBox="-393.935 -139.742 1000 359.965"><path fill="#EA5404" d="M272.519 155.887v.009-.009zM-147.774 53.963c-5.291 19.806-13.209 37.846-23.52 53.614-30.889 47.219-71.794 65.412-100.292 67.039-30.85-1.503-34.089-19.712-21.634-66.198C-250.258-52.214-153.439-88.519-107.095-98.059l-40.679 152.022zm700.531-73.706c-41.372 63.23-88.968 129.838-127.715 166.325-25.378 23.94-78.907 57.969-57.436-22.308 6.143-22.962 70.593-263.818 70.593-263.818-17.299 0-103.364-4.655-132.139 102.673 0 0-18.285 68.15-26.03 96.882-5.234 17.433-12.525 33.421-21.786 47.567-30.887 47.219-71.794 65.411-100.293 67.039h-.015c-16.719-.809-24.737-6.741-27.627-18.759-2.86-11.662 2.866-35.65 5.98-47.327l66.372-248.075c-9.242-.13-102.267-8.684-132.131 102.673L39.073 80.032c-2.1 7.119-7.458 21.619-16.498 34.622-20.157 29.04-55.98 59.982-74.97 59.982-13.52 0-18.877-15.505-9.559-50.362L8.633-139.543H-22.67c-110.702 0-189.573 17.843-248.176 56.135-98.29 64.163-123.09 191.226-123.09 217.362 0 27.891 8.585 86.231 105.344 86.231 60.391 0 103.016-31.727 128.619-60.972.98-1.129 1.958-2.263 2.927-3.381 2.026 13.763 6.834 28.766 17.146 40.827 12.762 14.893 36.875 23.528 59.987 23.528 50.96 0 94.483-34.177 117.638-64.274l.024.096c5.995 28.828 27.875 64.214 103.232 64.214 60.384 0 103.01-31.718 128.61-60.976.97-1.115 1.952-2.215 2.89-3.335 2.037 13.735 6.835 28.703 17.144 40.746l1.1 1.181.31.334c12.711 13.582 37.545 21.992 57.71 21.992 43.774 0 86.896-25.038 123.226-63.344 47.14-49.734 109.097-139.344 134.093-176.563"/></svg>